<svg width="51" height="51" viewBox="0 0 51 51" fill="none" xmlns="http://www.w3.org/2000/svg">
<path d="M49.8751 25.4376C49.885 29.2322 48.9984 32.9755 47.2876 36.3626C45.2591 40.4214 42.1406 43.8352 38.2815 46.2218C34.4224 48.6083 29.975 49.8733 25.4376 49.8751C21.643 49.885 17.8997 48.9984 14.5126 47.2876H3.58758L3.58758 36.3626C1.87676 32.9755 0.990188 29.2322 1.00008 25.4376C1.00184 20.9001 2.26684 16.4528 4.6534 12.5937C7.03996 8.73455 10.4538 5.61609 14.5126 3.58758C17.8997 1.87676 21.643 0.990188 25.4376 1.00008H26.8751C32.8676 1.33068 38.5276 3.86002 42.7714 8.1038C47.0151 12.3476 49.5445 18.0076 49.8751 24.0001V25.4376Z" fill="#FFEFC6" stroke="#08084A" stroke-width="2" stroke-linecap="round" stroke-linejoin="round"/>
<path d="M23.8839 29.0909V28.9886C23.8952 27.9034 24.0089 27.0398 24.2248 26.3977C24.4407 25.7557 24.7475 25.2358 25.1452 24.8381C25.543 24.4403 26.0202 24.0739 26.5771 23.7386C26.9123 23.5341 27.2134 23.2926 27.4805 23.0142C27.7475 22.7301 27.9577 22.4034 28.1112 22.0341C28.2702 21.6648 28.3498 21.2557 28.3498 20.8068C28.3498 20.25 28.2191 19.767 27.9577 19.358C27.6964 18.9489 27.3469 18.6335 26.9094 18.4119C26.4719 18.1903 25.9862 18.0795 25.4521 18.0795C24.9862 18.0795 24.5373 18.1761 24.1055 18.3693C23.6737 18.5625 23.3129 18.8665 23.0231 19.2812C22.7333 19.696 22.5657 20.2386 22.5202 20.9091H20.3725C20.418 19.9432 20.668 19.1165 21.1225 18.429C21.5827 17.7415 22.1879 17.2159 22.9379 16.8523C23.6935 16.4886 24.5316 16.3068 25.4521 16.3068C26.4521 16.3068 27.3214 16.5057 28.06 16.9034C28.8043 17.3011 29.3782 17.8466 29.7816 18.5398C30.1907 19.233 30.3952 20.0227 30.3952 20.9091C30.3952 21.5341 30.2987 22.0994 30.1055 22.6051C29.918 23.1108 29.6452 23.5625 29.2873 23.9602C28.935 24.358 28.5089 24.7102 28.0089 25.017C27.5089 25.3295 27.1083 25.6591 26.8072 26.0057C26.506 26.3466 26.2873 26.7528 26.1509 27.2244C26.0146 27.696 25.9407 28.2841 25.9293 28.9886V29.0909H23.8839ZM24.9748 34.1364C24.5543 34.1364 24.1935 33.9858 23.8924 33.6847C23.5913 33.3835 23.4407 33.0227 23.4407 32.6023C23.4407 32.1818 23.5913 31.821 23.8924 31.5199C24.1935 31.2187 24.5543 31.0682 24.9748 31.0682C25.3952 31.0682 25.756 31.2187 26.0572 31.5199C26.3583 31.821 26.5089 32.1818 26.5089 32.6023C26.5089 32.8807 26.4379 33.1364 26.2958 33.3693C26.1594 33.6023 25.9748 33.7898 25.7418 33.9318C25.5146 34.0682 25.2589 34.1364 24.9748 34.1364Z" fill="#08084A"/>
</svg>
